<mxfile host="app.diagrams.net" agent="Mozilla/5.0 (Windows NT 10.0; Win64; x64) AppleWebKit/537.36 (KHTML, like Gecko) Chrome/139.0.0.0 Safari/537.36 Edg/139.0.0.0" version="28.1.2">
  <diagram name="PÃ¡gina-1" id="mRv37U4wmgpILsiZLZiM">
    <mxGraphModel dx="2713" dy="1098" grid="1" gridSize="10" guides="1" tooltips="1" connect="1" arrows="1" fold="1" page="1" pageScale="1" pageWidth="827" pageHeight="1169" math="0" shadow="0">
      <root>
        <mxCell id="0" />
        <mxCell id="1" parent="0" />
        <mxCell id="we5CFTlUtSjJnZkdzTHI-1" value="Dealership" style="swimlane;fontStyle=1;align=center;verticalAlign=top;childLayout=stackLayout;horizontal=1;startSize=26;horizontalStack=0;resizeParent=1;resizeParentMax=0;resizeLast=0;collapsible=1;marginBottom=0;whiteSpace=wrap;html=1;" parent="1" vertex="1">
          <mxGeometry x="540" y="15" width="240" height="370" as="geometry" />
        </mxCell>
        <mxCell id="we5CFTlUtSjJnZkdzTHI-5" value="- name: String&lt;span style=&quot;background-color: transparent; color: light-dark(rgb(0, 0, 0), rgb(255, 255, 255));&quot;&gt;&amp;nbsp;&lt;/span&gt;" style="text;strokeColor=none;fillColor=none;align=left;verticalAlign=top;spacingLeft=4;spacingRight=4;overflow=hidden;rotatable=0;points=[[0,0.5],[1,0.5]];portConstraint=eastwest;whiteSpace=wrap;html=1;" parent="we5CFTlUtSjJnZkdzTHI-1" vertex="1">
          <mxGeometry y="26" width="240" height="26" as="geometry" />
        </mxCell>
        <mxCell id="we5CFTlUtSjJnZkdzTHI-2" value="- nit: String&lt;span style=&quot;background-color: transparent; color: light-dark(rgb(0, 0, 0), rgb(255, 255, 255));&quot;&gt;&amp;nbsp;&lt;/span&gt;" style="text;strokeColor=none;fillColor=none;align=left;verticalAlign=top;spacingLeft=4;spacingRight=4;overflow=hidden;rotatable=0;points=[[0,0.5],[1,0.5]];portConstraint=eastwest;whiteSpace=wrap;html=1;" parent="we5CFTlUtSjJnZkdzTHI-1" vertex="1">
          <mxGeometry y="52" width="240" height="26" as="geometry" />
        </mxCell>
        <mxCell id="uyxUzQ3jVB2el6wWb-nj-1" value="- listVehicles: ArrayList&amp;lt;Vehicle&amp;gt;&lt;span style=&quot;background-color: transparent; color: light-dark(rgb(0, 0, 0), rgb(255, 255, 255));&quot;&gt;&amp;nbsp;&lt;/span&gt;" style="text;strokeColor=none;fillColor=none;align=left;verticalAlign=top;spacingLeft=4;spacingRight=4;overflow=hidden;rotatable=0;points=[[0,0.5],[1,0.5]];portConstraint=eastwest;whiteSpace=wrap;html=1;" parent="we5CFTlUtSjJnZkdzTHI-1" vertex="1">
          <mxGeometry y="78" width="240" height="26" as="geometry" />
        </mxCell>
        <mxCell id="we5CFTlUtSjJnZkdzTHI-6" value="- listPeople: ArrayList&amp;lt;People&amp;gt;&lt;span style=&quot;background-color: transparent; color: light-dark(rgb(0, 0, 0), rgb(255, 255, 255));&quot;&gt;&amp;nbsp;&lt;/span&gt;" style="text;strokeColor=none;fillColor=none;align=left;verticalAlign=top;spacingLeft=4;spacingRight=4;overflow=hidden;rotatable=0;points=[[0,0.5],[1,0.5]];portConstraint=eastwest;whiteSpace=wrap;html=1;" parent="we5CFTlUtSjJnZkdzTHI-1" vertex="1">
          <mxGeometry y="104" width="240" height="26" as="geometry" />
        </mxCell>
        <mxCell id="uyxUzQ3jVB2el6wWb-nj-4" value="&amp;lt;&amp;lt;static&amp;gt;&amp;gt; class Builder&amp;lt;T&amp;gt;" style="text;strokeColor=none;fillColor=none;align=left;verticalAlign=top;spacingLeft=4;spacingRight=4;overflow=hidden;rotatable=0;points=[[0,0.5],[1,0.5]];portConstraint=eastwest;whiteSpace=wrap;html=1;" parent="we5CFTlUtSjJnZkdzTHI-1" vertex="1">
          <mxGeometry y="130" width="240" height="26" as="geometry" />
        </mxCell>
        <mxCell id="we5CFTlUtSjJnZkdzTHI-3" value="" style="line;strokeWidth=1;fillColor=none;align=left;verticalAlign=middle;spacingTop=-1;spacingLeft=3;spacingRight=3;rotatable=0;labelPosition=right;points=[];portConstraint=eastwest;strokeColor=inherit;" parent="we5CFTlUtSjJnZkdzTHI-1" vertex="1">
          <mxGeometry y="156" width="240" height="8" as="geometry" />
        </mxCell>
        <mxCell id="uyxUzQ3jVB2el6wWb-nj-3" value="- Dealership(Builder builder)" style="text;strokeColor=none;fillColor=none;align=left;verticalAlign=top;spacingLeft=4;spacingRight=4;overflow=hidden;rotatable=0;points=[[0,0.5],[1,0.5]];portConstraint=eastwest;whiteSpace=wrap;html=1;" parent="we5CFTlUtSjJnZkdzTHI-1" vertex="1">
          <mxGeometry y="164" width="240" height="26" as="geometry" />
        </mxCell>
        <mxCell id="uyxUzQ3jVB2el6wWb-nj-2" value="+ registerVehicle(type: String, plate: String, brand: String, model: String): Vehicle ^Exception" style="text;strokeColor=none;fillColor=none;align=left;verticalAlign=top;spacingLeft=4;spacingRight=4;overflow=hidden;rotatable=0;points=[[0,0.5],[1,0.5]];portConstraint=eastwest;whiteSpace=wrap;html=1;" parent="we5CFTlUtSjJnZkdzTHI-1" vertex="1">
          <mxGeometry y="190" width="240" height="50" as="geometry" />
        </mxCell>
        <mxCell id="uyxUzQ3jVB2el6wWb-nj-5" value="+ registerClient(name: String, id: String, cLevel: CLevel, shippingAddress: String): Client ^Exception" style="text;strokeColor=none;fillColor=none;align=left;verticalAlign=top;spacingLeft=4;spacingRight=4;overflow=hidden;rotatable=0;points=[[0,0.5],[1,0.5]];portConstraint=eastwest;whiteSpace=wrap;html=1;" parent="we5CFTlUtSjJnZkdzTHI-1" vertex="1">
          <mxGeometry y="240" width="240" height="54" as="geometry" />
        </mxCell>
        <mxCell id="we5CFTlUtSjJnZkdzTHI-4" value="+ registerEmployee(name: String, id: String, code: String, job: String, salary: doble): Employee ^Exception" style="text;strokeColor=none;fillColor=none;align=left;verticalAlign=top;spacingLeft=4;spacingRight=4;overflow=hidden;rotatable=0;points=[[0,0.5],[1,0.5]];portConstraint=eastwest;whiteSpace=wrap;html=1;" parent="we5CFTlUtSjJnZkdzTHI-1" vertex="1">
          <mxGeometry y="294" width="240" height="76" as="geometry" />
        </mxCell>
        <mxCell id="we5CFTlUtSjJnZkdzTHI-7" value="&lt;div&gt;&amp;lt;&amp;lt;abstract&lt;span style=&quot;background-color: transparent; color: light-dark(rgb(0, 0, 0), rgb(255, 255, 255));&quot;&gt;&amp;gt;&amp;gt;&lt;/span&gt;&lt;/div&gt;Vehicle" style="swimlane;fontStyle=1;align=center;verticalAlign=top;childLayout=stackLayout;horizontal=1;startSize=40;horizontalStack=0;resizeParent=1;resizeParentMax=0;resizeLast=0;collapsible=1;marginBottom=0;whiteSpace=wrap;html=1;" parent="1" vertex="1">
          <mxGeometry x="230" y="140" width="160" height="240" as="geometry" />
        </mxCell>
        <mxCell id="we5CFTlUtSjJnZkdzTHI-34" value="# plate: String" style="text;strokeColor=none;fillColor=none;align=left;verticalAlign=top;spacingLeft=4;spacingRight=4;overflow=hidden;rotatable=0;points=[[0,0.5],[1,0.5]];portConstraint=eastwest;whiteSpace=wrap;html=1;" parent="we5CFTlUtSjJnZkdzTHI-7" vertex="1">
          <mxGeometry y="40" width="160" height="26" as="geometry" />
        </mxCell>
        <mxCell id="we5CFTlUtSjJnZkdzTHI-8" value="# brand: String" style="text;strokeColor=none;fillColor=none;align=left;verticalAlign=top;spacingLeft=4;spacingRight=4;overflow=hidden;rotatable=0;points=[[0,0.5],[1,0.5]];portConstraint=eastwest;whiteSpace=wrap;html=1;" parent="we5CFTlUtSjJnZkdzTHI-7" vertex="1">
          <mxGeometry y="66" width="160" height="26" as="geometry" />
        </mxCell>
        <mxCell id="we5CFTlUtSjJnZkdzTHI-11" value="# model: String" style="text;strokeColor=none;fillColor=none;align=left;verticalAlign=top;spacingLeft=4;spacingRight=4;overflow=hidden;rotatable=0;points=[[0,0.5],[1,0.5]];portConstraint=eastwest;whiteSpace=wrap;html=1;" parent="we5CFTlUtSjJnZkdzTHI-7" vertex="1">
          <mxGeometry y="92" width="160" height="26" as="geometry" />
        </mxCell>
        <mxCell id="we5CFTlUtSjJnZkdzTHI-12" value="-#traction: Traction" style="text;strokeColor=none;fillColor=none;align=left;verticalAlign=top;spacingLeft=4;spacingRight=4;overflow=hidden;rotatable=0;points=[[0,0.5],[1,0.5]];portConstraint=eastwest;whiteSpace=wrap;html=1;" parent="we5CFTlUtSjJnZkdzTHI-7" vertex="1">
          <mxGeometry y="118" width="160" height="26" as="geometry" />
        </mxCell>
        <mxCell id="we5CFTlUtSjJnZkdzTHI-9" value="" style="line;strokeWidth=1;fillColor=none;align=left;verticalAlign=middle;spacingTop=-1;spacingLeft=3;spacingRight=3;rotatable=0;labelPosition=right;points=[];portConstraint=eastwest;strokeColor=inherit;" parent="we5CFTlUtSjJnZkdzTHI-7" vertex="1">
          <mxGeometry y="144" width="160" height="8" as="geometry" />
        </mxCell>
        <mxCell id="we5CFTlUtSjJnZkdzTHI-10" value="# Vehicle(plate: String, brand: String, model: String)" style="text;strokeColor=none;fillColor=none;align=left;verticalAlign=top;spacingLeft=4;spacingRight=4;overflow=hidden;rotatable=0;points=[[0,0.5],[1,0.5]];portConstraint=eastwest;whiteSpace=wrap;html=1;" parent="we5CFTlUtSjJnZkdzTHI-7" vertex="1">
          <mxGeometry y="152" width="160" height="58" as="geometry" />
        </mxCell>
        <mxCell id="uyxUzQ3jVB2el6wWb-nj-6" value="+ &lt;i&gt;run()&lt;/i&gt;: void" style="text;strokeColor=none;fillColor=none;align=left;verticalAlign=top;spacingLeft=4;spacingRight=4;overflow=hidden;rotatable=0;points=[[0,0.5],[1,0.5]];portConstraint=eastwest;whiteSpace=wrap;html=1;" parent="we5CFTlUtSjJnZkdzTHI-7" vertex="1">
          <mxGeometry y="210" width="160" height="30" as="geometry" />
        </mxCell>
        <mxCell id="we5CFTlUtSjJnZkdzTHI-13" value="Car" style="swimlane;fontStyle=1;align=center;verticalAlign=top;childLayout=stackLayout;horizontal=1;startSize=26;horizontalStack=0;resizeParent=1;resizeParentMax=0;resizeLast=0;collapsible=1;marginBottom=0;whiteSpace=wrap;html=1;" parent="1" vertex="1">
          <mxGeometry x="120" y="550" width="160" height="130" as="geometry" />
        </mxCell>
        <mxCell id="we5CFTlUtSjJnZkdzTHI-14" value="+ hasAirbags: boolean" style="text;strokeColor=none;fillColor=none;align=left;verticalAlign=top;spacingLeft=4;spacingRight=4;overflow=hidden;rotatable=0;points=[[0,0.5],[1,0.5]];portConstraint=eastwest;whiteSpace=wrap;html=1;" parent="we5CFTlUtSjJnZkdzTHI-13" vertex="1">
          <mxGeometry y="26" width="160" height="26" as="geometry" />
        </mxCell>
        <mxCell id="we5CFTlUtSjJnZkdzTHI-15" value="" style="line;strokeWidth=1;fillColor=none;align=left;verticalAlign=middle;spacingTop=-1;spacingLeft=3;spacingRight=3;rotatable=0;labelPosition=right;points=[];portConstraint=eastwest;strokeColor=inherit;" parent="we5CFTlUtSjJnZkdzTHI-13" vertex="1">
          <mxGeometry y="52" width="160" height="8" as="geometry" />
        </mxCell>
        <mxCell id="uyxUzQ3jVB2el6wWb-nj-9" value="+ Car(plate: String, brand: String, model: String)" style="text;strokeColor=none;fillColor=none;align=left;verticalAlign=top;spacingLeft=4;spacingRight=4;overflow=hidden;rotatable=0;points=[[0,0.5],[1,0.5]];portConstraint=eastwest;whiteSpace=wrap;html=1;" parent="we5CFTlUtSjJnZkdzTHI-13" vertex="1">
          <mxGeometry y="60" width="160" height="40" as="geometry" />
        </mxCell>
        <mxCell id="we5CFTlUtSjJnZkdzTHI-16" value="+ run(): void" style="text;strokeColor=none;fillColor=none;align=left;verticalAlign=top;spacingLeft=4;spacingRight=4;overflow=hidden;rotatable=0;points=[[0,0.5],[1,0.5]];portConstraint=eastwest;whiteSpace=wrap;html=1;" parent="we5CFTlUtSjJnZkdzTHI-13" vertex="1">
          <mxGeometry y="100" width="160" height="30" as="geometry" />
        </mxCell>
        <mxCell id="we5CFTlUtSjJnZkdzTHI-17" value="Bike" style="swimlane;fontStyle=1;align=center;verticalAlign=top;childLayout=stackLayout;horizontal=1;startSize=26;horizontalStack=0;resizeParent=1;resizeParentMax=0;resizeLast=0;collapsible=1;marginBottom=0;whiteSpace=wrap;html=1;" parent="1" vertex="1">
          <mxGeometry x="350" y="560" width="160" height="130" as="geometry" />
        </mxCell>
        <mxCell id="we5CFTlUtSjJnZkdzTHI-18" value="+ hasAirbags: boolean" style="text;strokeColor=none;fillColor=none;align=left;verticalAlign=top;spacingLeft=4;spacingRight=4;overflow=hidden;rotatable=0;points=[[0,0.5],[1,0.5]];portConstraint=eastwest;whiteSpace=wrap;html=1;" parent="we5CFTlUtSjJnZkdzTHI-17" vertex="1">
          <mxGeometry y="26" width="160" height="26" as="geometry" />
        </mxCell>
        <mxCell id="we5CFTlUtSjJnZkdzTHI-19" value="" style="line;strokeWidth=1;fillColor=none;align=left;verticalAlign=middle;spacingTop=-1;spacingLeft=3;spacingRight=3;rotatable=0;labelPosition=right;points=[];portConstraint=eastwest;strokeColor=inherit;" parent="we5CFTlUtSjJnZkdzTHI-17" vertex="1">
          <mxGeometry y="52" width="160" height="8" as="geometry" />
        </mxCell>
        <mxCell id="we5CFTlUtSjJnZkdzTHI-20" value="+ Bike(plate: String, brand: String, model: String)" style="text;strokeColor=none;fillColor=none;align=left;verticalAlign=top;spacingLeft=4;spacingRight=4;overflow=hidden;rotatable=0;points=[[0,0.5],[1,0.5]];portConstraint=eastwest;whiteSpace=wrap;html=1;" parent="we5CFTlUtSjJnZkdzTHI-17" vertex="1">
          <mxGeometry y="60" width="160" height="40" as="geometry" />
        </mxCell>
        <mxCell id="uyxUzQ3jVB2el6wWb-nj-7" value="+ run(): void" style="text;strokeColor=none;fillColor=none;align=left;verticalAlign=top;spacingLeft=4;spacingRight=4;overflow=hidden;rotatable=0;points=[[0,0.5],[1,0.5]];portConstraint=eastwest;whiteSpace=wrap;html=1;" parent="we5CFTlUtSjJnZkdzTHI-17" vertex="1">
          <mxGeometry y="100" width="160" height="30" as="geometry" />
        </mxCell>
        <mxCell id="we5CFTlUtSjJnZkdzTHI-22" value="Use" style="endArrow=open;endSize=12;dashed=1;html=1;rounded=0;exitX=0.5;exitY=0;exitDx=0;exitDy=0;" parent="1" source="we5CFTlUtSjJnZkdzTHI-23" target="we5CFTlUtSjJnZkdzTHI-1" edge="1">
          <mxGeometry width="160" relative="1" as="geometry">
            <mxPoint x="350" y="200" as="sourcePoint" />
            <mxPoint x="410" y="190" as="targetPoint" />
            <Array as="points">
              <mxPoint x="1230" y="40" />
              <mxPoint x="1140" y="40" />
              <mxPoint x="1000" y="40" />
              <mxPoint x="940" y="40" />
            </Array>
          </mxGeometry>
        </mxCell>
        <mxCell id="we5CFTlUtSjJnZkdzTHI-23" value="VehicleFactory&lt;div&gt;&lt;br&gt;&lt;/div&gt;" style="swimlane;fontStyle=1;align=center;verticalAlign=top;childLayout=stackLayout;horizontal=1;startSize=26;horizontalStack=0;resizeParent=1;resizeParentMax=0;resizeLast=0;collapsible=1;marginBottom=0;whiteSpace=wrap;html=1;" parent="1" vertex="1">
          <mxGeometry x="1140" y="150" width="190" height="100" as="geometry" />
        </mxCell>
        <mxCell id="we5CFTlUtSjJnZkdzTHI-25" value="" style="line;strokeWidth=1;fillColor=none;align=left;verticalAlign=middle;spacingTop=-1;spacingLeft=3;spacingRight=3;rotatable=0;labelPosition=right;points=[];portConstraint=eastwest;strokeColor=inherit;" parent="we5CFTlUtSjJnZkdzTHI-23" vertex="1">
          <mxGeometry y="26" width="190" height="8" as="geometry" />
        </mxCell>
        <mxCell id="we5CFTlUtSjJnZkdzTHI-26" value="+ createVehicle(type: String, plate: String, brand: String, model: String): Vehicle" style="text;strokeColor=none;fillColor=none;align=left;verticalAlign=top;spacingLeft=4;spacingRight=4;overflow=hidden;rotatable=0;points=[[0,0.5],[1,0.5]];portConstraint=eastwest;whiteSpace=wrap;html=1;" parent="we5CFTlUtSjJnZkdzTHI-23" vertex="1">
          <mxGeometry y="34" width="190" height="66" as="geometry" />
        </mxCell>
        <mxCell id="we5CFTlUtSjJnZkdzTHI-27" value="&lt;b&gt;&lt;font style=&quot;font-size: 21px;&quot;&gt;*&lt;/font&gt;&lt;/b&gt;" style="endArrow=open;html=1;endSize=12;startArrow=diamondThin;startSize=14;startFill=1;edgeStyle=orthogonalEdgeStyle;align=left;verticalAlign=bottom;rounded=0;" parent="1" source="we5CFTlUtSjJnZkdzTHI-1" target="we5CFTlUtSjJnZkdzTHI-7" edge="1">
          <mxGeometry x="1" y="20" relative="1" as="geometry">
            <mxPoint x="210" y="110" as="sourcePoint" />
            <mxPoint x="160" y="120" as="targetPoint" />
            <mxPoint as="offset" />
            <Array as="points">
              <mxPoint x="310" y="30" />
            </Array>
          </mxGeometry>
        </mxCell>
        <mxCell id="we5CFTlUtSjJnZkdzTHI-31" value="listVehicles" style="text;html=1;align=center;verticalAlign=middle;resizable=0;points=[];autosize=1;strokeColor=none;fillColor=none;" parent="1" vertex="1">
          <mxGeometry x="230" y="110" width="80" height="30" as="geometry" />
        </mxCell>
        <mxCell id="we5CFTlUtSjJnZkdzTHI-32" value="Extends" style="endArrow=block;endSize=16;endFill=0;html=1;rounded=0;exitX=0.5;exitY=0;exitDx=0;exitDy=0;" parent="1" source="we5CFTlUtSjJnZkdzTHI-13" target="we5CFTlUtSjJnZkdzTHI-7" edge="1">
          <mxGeometry width="160" relative="1" as="geometry">
            <mxPoint x="220" y="360" as="sourcePoint" />
            <mxPoint x="130" y="450" as="targetPoint" />
          </mxGeometry>
        </mxCell>
        <mxCell id="we5CFTlUtSjJnZkdzTHI-33" value="Extends" style="endArrow=block;endSize=16;endFill=0;html=1;rounded=0;exitX=0.5;exitY=0;exitDx=0;exitDy=0;" parent="1" source="we5CFTlUtSjJnZkdzTHI-17" target="we5CFTlUtSjJnZkdzTHI-7" edge="1">
          <mxGeometry width="160" relative="1" as="geometry">
            <mxPoint x="321" y="425" as="sourcePoint" />
            <mxPoint x="320" y="330" as="targetPoint" />
            <Array as="points" />
          </mxGeometry>
        </mxCell>
        <mxCell id="uyxUzQ3jVB2el6wWb-nj-10" value="&amp;lt;&amp;lt;abstract&amp;gt;&amp;gt;&lt;div&gt;People&lt;/div&gt;" style="swimlane;fontStyle=1;align=center;verticalAlign=top;childLayout=stackLayout;horizontal=1;startSize=40;horizontalStack=0;resizeParent=1;resizeParentMax=0;resizeLast=0;collapsible=1;marginBottom=0;whiteSpace=wrap;html=1;" parent="1" vertex="1">
          <mxGeometry x="940" y="470" width="180" height="164" as="geometry" />
        </mxCell>
        <mxCell id="uyxUzQ3jVB2el6wWb-nj-14" value="# name: String" style="text;strokeColor=none;fillColor=none;align=left;verticalAlign=top;spacingLeft=4;spacingRight=4;overflow=hidden;rotatable=0;points=[[0,0.5],[1,0.5]];portConstraint=eastwest;whiteSpace=wrap;html=1;" parent="uyxUzQ3jVB2el6wWb-nj-10" vertex="1">
          <mxGeometry y="40" width="180" height="26" as="geometry" />
        </mxCell>
        <mxCell id="uyxUzQ3jVB2el6wWb-nj-15" value="# id: String" style="text;strokeColor=none;fillColor=none;align=left;verticalAlign=top;spacingLeft=4;spacingRight=4;overflow=hidden;rotatable=0;points=[[0,0.5],[1,0.5]];portConstraint=eastwest;whiteSpace=wrap;html=1;" parent="uyxUzQ3jVB2el6wWb-nj-10" vertex="1">
          <mxGeometry y="66" width="180" height="26" as="geometry" />
        </mxCell>
        <mxCell id="uyxUzQ3jVB2el6wWb-nj-11" value="+ &amp;lt;&amp;lt;static abstract&amp;gt;&amp;gt; class Builder&amp;lt;T&amp;gt;" style="text;strokeColor=none;fillColor=none;align=left;verticalAlign=top;spacingLeft=4;spacingRight=4;overflow=hidden;rotatable=0;points=[[0,0.5],[1,0.5]];portConstraint=eastwest;whiteSpace=wrap;html=1;" parent="uyxUzQ3jVB2el6wWb-nj-10" vertex="1">
          <mxGeometry y="92" width="180" height="38" as="geometry" />
        </mxCell>
        <mxCell id="uyxUzQ3jVB2el6wWb-nj-12" value="" style="line;strokeWidth=1;fillColor=none;align=left;verticalAlign=middle;spacingTop=-1;spacingLeft=3;spacingRight=3;rotatable=0;labelPosition=right;points=[];portConstraint=eastwest;strokeColor=inherit;" parent="uyxUzQ3jVB2el6wWb-nj-10" vertex="1">
          <mxGeometry y="130" width="180" height="8" as="geometry" />
        </mxCell>
        <mxCell id="uyxUzQ3jVB2el6wWb-nj-13" value="# People(Builder&amp;lt;?&amp;gt; builder)" style="text;strokeColor=none;fillColor=none;align=left;verticalAlign=top;spacingLeft=4;spacingRight=4;overflow=hidden;rotatable=0;points=[[0,0.5],[1,0.5]];portConstraint=eastwest;whiteSpace=wrap;html=1;" parent="uyxUzQ3jVB2el6wWb-nj-10" vertex="1">
          <mxGeometry y="138" width="180" height="26" as="geometry" />
        </mxCell>
        <mxCell id="uyxUzQ3jVB2el6wWb-nj-17" value="listPeople" style="text;html=1;align=center;verticalAlign=middle;resizable=0;points=[];autosize=1;strokeColor=none;fillColor=none;" parent="1" vertex="1">
          <mxGeometry x="940" y="440" width="80" height="30" as="geometry" />
        </mxCell>
        <mxCell id="uyxUzQ3jVB2el6wWb-nj-21" value="&lt;b&gt;&lt;font style=&quot;font-size: 21px;&quot;&gt;*&lt;/font&gt;&lt;/b&gt;" style="endArrow=open;html=1;endSize=12;startArrow=diamondThin;startSize=14;startFill=1;edgeStyle=orthogonalEdgeStyle;align=left;verticalAlign=bottom;rounded=0;" parent="1" source="we5CFTlUtSjJnZkdzTHI-1" target="uyxUzQ3jVB2el6wWb-nj-10" edge="1">
          <mxGeometry x="1" y="20" relative="1" as="geometry">
            <mxPoint x="660" y="420" as="sourcePoint" />
            <mxPoint x="430" y="540" as="targetPoint" />
            <mxPoint as="offset" />
            <Array as="points" />
          </mxGeometry>
        </mxCell>
        <mxCell id="uyxUzQ3jVB2el6wWb-nj-22" value="Client" style="swimlane;fontStyle=1;align=center;verticalAlign=top;childLayout=stackLayout;horizontal=1;startSize=26;horizontalStack=0;resizeParent=1;resizeParentMax=0;resizeLast=0;collapsible=1;marginBottom=0;whiteSpace=wrap;html=1;" parent="1" vertex="1">
          <mxGeometry x="860" y="760" width="160" height="166" as="geometry" />
        </mxCell>
        <mxCell id="uyxUzQ3jVB2el6wWb-nj-32" value="- member: boolean" style="text;strokeColor=none;fillColor=none;align=left;verticalAlign=top;spacingLeft=4;spacingRight=4;overflow=hidden;rotatable=0;points=[[0,0.5],[1,0.5]];portConstraint=eastwest;whiteSpace=wrap;html=1;" parent="uyxUzQ3jVB2el6wWb-nj-22" vertex="1">
          <mxGeometry y="26" width="160" height="26" as="geometry" />
        </mxCell>
        <mxCell id="uyxUzQ3jVB2el6wWb-nj-33" value="- cLevel: CLevel" style="text;strokeColor=none;fillColor=none;align=left;verticalAlign=top;spacingLeft=4;spacingRight=4;overflow=hidden;rotatable=0;points=[[0,0.5],[1,0.5]];portConstraint=eastwest;whiteSpace=wrap;html=1;" parent="uyxUzQ3jVB2el6wWb-nj-22" vertex="1">
          <mxGeometry y="52" width="160" height="26" as="geometry" />
        </mxCell>
        <mxCell id="uyxUzQ3jVB2el6wWb-nj-36" value="- shippingAddress: String" style="text;strokeColor=none;fillColor=none;align=left;verticalAlign=top;spacingLeft=4;spacingRight=4;overflow=hidden;rotatable=0;points=[[0,0.5],[1,0.5]];portConstraint=eastwest;whiteSpace=wrap;html=1;" parent="uyxUzQ3jVB2el6wWb-nj-22" vertex="1">
          <mxGeometry y="78" width="160" height="26" as="geometry" />
        </mxCell>
        <mxCell id="uyxUzQ3jVB2el6wWb-nj-23" value="+ &amp;lt;&amp;lt;static&amp;gt;&amp;gt; class Builder" style="text;strokeColor=none;fillColor=none;align=left;verticalAlign=top;spacingLeft=4;spacingRight=4;overflow=hidden;rotatable=0;points=[[0,0.5],[1,0.5]];portConstraint=eastwest;whiteSpace=wrap;html=1;" parent="uyxUzQ3jVB2el6wWb-nj-22" vertex="1">
          <mxGeometry y="104" width="160" height="26" as="geometry" />
        </mxCell>
        <mxCell id="uyxUzQ3jVB2el6wWb-nj-24" value="" style="line;strokeWidth=1;fillColor=none;align=left;verticalAlign=middle;spacingTop=-1;spacingLeft=3;spacingRight=3;rotatable=0;labelPosition=right;points=[];portConstraint=eastwest;strokeColor=inherit;" parent="uyxUzQ3jVB2el6wWb-nj-22" vertex="1">
          <mxGeometry y="130" width="160" height="8" as="geometry" />
        </mxCell>
        <mxCell id="uyxUzQ3jVB2el6wWb-nj-25" value="- Client(Builder builder)" style="text;strokeColor=none;fillColor=none;align=left;verticalAlign=top;spacingLeft=4;spacingRight=4;overflow=hidden;rotatable=0;points=[[0,0.5],[1,0.5]];portConstraint=eastwest;whiteSpace=wrap;html=1;" parent="uyxUzQ3jVB2el6wWb-nj-22" vertex="1">
          <mxGeometry y="138" width="160" height="28" as="geometry" />
        </mxCell>
        <mxCell id="uyxUzQ3jVB2el6wWb-nj-37" value="Employee" style="swimlane;fontStyle=1;align=center;verticalAlign=top;childLayout=stackLayout;horizontal=1;startSize=26;horizontalStack=0;resizeParent=1;resizeParentMax=0;resizeLast=0;collapsible=1;marginBottom=0;whiteSpace=wrap;html=1;" parent="1" vertex="1">
          <mxGeometry x="1120" y="740" width="160" height="166" as="geometry" />
        </mxCell>
        <mxCell id="uyxUzQ3jVB2el6wWb-nj-38" value="- code: String" style="text;strokeColor=none;fillColor=none;align=left;verticalAlign=top;spacingLeft=4;spacingRight=4;overflow=hidden;rotatable=0;points=[[0,0.5],[1,0.5]];portConstraint=eastwest;whiteSpace=wrap;html=1;" parent="uyxUzQ3jVB2el6wWb-nj-37" vertex="1">
          <mxGeometry y="26" width="160" height="26" as="geometry" />
        </mxCell>
        <mxCell id="uyxUzQ3jVB2el6wWb-nj-39" value="- job: String" style="text;strokeColor=none;fillColor=none;align=left;verticalAlign=top;spacingLeft=4;spacingRight=4;overflow=hidden;rotatable=0;points=[[0,0.5],[1,0.5]];portConstraint=eastwest;whiteSpace=wrap;html=1;" parent="uyxUzQ3jVB2el6wWb-nj-37" vertex="1">
          <mxGeometry y="52" width="160" height="26" as="geometry" />
        </mxCell>
        <mxCell id="uyxUzQ3jVB2el6wWb-nj-40" value="- salary: souble" style="text;strokeColor=none;fillColor=none;align=left;verticalAlign=top;spacingLeft=4;spacingRight=4;overflow=hidden;rotatable=0;points=[[0,0.5],[1,0.5]];portConstraint=eastwest;whiteSpace=wrap;html=1;" parent="uyxUzQ3jVB2el6wWb-nj-37" vertex="1">
          <mxGeometry y="78" width="160" height="26" as="geometry" />
        </mxCell>
        <mxCell id="uyxUzQ3jVB2el6wWb-nj-41" value="+ &amp;lt;&amp;lt;static&amp;gt;&amp;gt; class Builder" style="text;strokeColor=none;fillColor=none;align=left;verticalAlign=top;spacingLeft=4;spacingRight=4;overflow=hidden;rotatable=0;points=[[0,0.5],[1,0.5]];portConstraint=eastwest;whiteSpace=wrap;html=1;" parent="uyxUzQ3jVB2el6wWb-nj-37" vertex="1">
          <mxGeometry y="104" width="160" height="26" as="geometry" />
        </mxCell>
        <mxCell id="uyxUzQ3jVB2el6wWb-nj-42" value="" style="line;strokeWidth=1;fillColor=none;align=left;verticalAlign=middle;spacingTop=-1;spacingLeft=3;spacingRight=3;rotatable=0;labelPosition=right;points=[];portConstraint=eastwest;strokeColor=inherit;" parent="uyxUzQ3jVB2el6wWb-nj-37" vertex="1">
          <mxGeometry y="130" width="160" height="8" as="geometry" />
        </mxCell>
        <mxCell id="uyxUzQ3jVB2el6wWb-nj-43" value="- Employee(Builder builder)" style="text;strokeColor=none;fillColor=none;align=left;verticalAlign=top;spacingLeft=4;spacingRight=4;overflow=hidden;rotatable=0;points=[[0,0.5],[1,0.5]];portConstraint=eastwest;whiteSpace=wrap;html=1;" parent="uyxUzQ3jVB2el6wWb-nj-37" vertex="1">
          <mxGeometry y="138" width="160" height="28" as="geometry" />
        </mxCell>
        <mxCell id="uyxUzQ3jVB2el6wWb-nj-45" value="Extends" style="endArrow=block;endSize=16;endFill=0;html=1;rounded=0;" parent="1" source="uyxUzQ3jVB2el6wWb-nj-22" target="uyxUzQ3jVB2el6wWb-nj-10" edge="1">
          <mxGeometry width="160" relative="1" as="geometry">
            <mxPoint x="610" y="980" as="sourcePoint" />
            <mxPoint x="510" y="700" as="targetPoint" />
            <Array as="points" />
          </mxGeometry>
        </mxCell>
        <mxCell id="uyxUzQ3jVB2el6wWb-nj-46" value="Extends" style="endArrow=block;endSize=16;endFill=0;html=1;rounded=0;" parent="1" source="uyxUzQ3jVB2el6wWb-nj-37" target="uyxUzQ3jVB2el6wWb-nj-10" edge="1">
          <mxGeometry width="160" relative="1" as="geometry">
            <mxPoint x="670" y="970" as="sourcePoint" />
            <mxPoint x="570" y="690" as="targetPoint" />
            <Array as="points" />
          </mxGeometry>
        </mxCell>
        <mxCell id="uyxUzQ3jVB2el6wWb-nj-48" value="&amp;lt;&amp;lt;Enum&amp;gt;&amp;gt;&lt;div&gt;Transmission&lt;/div&gt;" style="swimlane;fontStyle=0;childLayout=stackLayout;horizontal=1;startSize=30;fillColor=none;horizontalStack=0;resizeParent=1;resizeParentMax=0;resizeLast=0;collapsible=1;marginBottom=0;whiteSpace=wrap;html=1;" parent="1" vertex="1">
          <mxGeometry x="240" y="802" width="140" height="82" as="geometry" />
        </mxCell>
        <mxCell id="uyxUzQ3jVB2el6wWb-nj-49" value="MANUAL(1)" style="text;strokeColor=none;fillColor=none;align=left;verticalAlign=top;spacingLeft=4;spacingRight=4;overflow=hidden;rotatable=0;points=[[0,0.5],[1,0.5]];portConstraint=eastwest;whiteSpace=wrap;html=1;" parent="uyxUzQ3jVB2el6wWb-nj-48" vertex="1">
          <mxGeometry y="30" width="140" height="26" as="geometry" />
        </mxCell>
        <mxCell id="uyxUzQ3jVB2el6wWb-nj-50" value="AUTOMATIC(2)" style="text;strokeColor=none;fillColor=none;align=left;verticalAlign=top;spacingLeft=4;spacingRight=4;overflow=hidden;rotatable=0;points=[[0,0.5],[1,0.5]];portConstraint=eastwest;whiteSpace=wrap;html=1;" parent="uyxUzQ3jVB2el6wWb-nj-48" vertex="1">
          <mxGeometry y="56" width="140" height="26" as="geometry" />
        </mxCell>
        <mxCell id="uyxUzQ3jVB2el6wWb-nj-52" value="&amp;lt;&amp;lt;Enum&amp;gt;&amp;gt;&lt;div&gt;CLevel&lt;/div&gt;" style="swimlane;fontStyle=0;childLayout=stackLayout;horizontal=1;startSize=30;fillColor=none;horizontalStack=0;resizeParent=1;resizeParentMax=0;resizeLast=0;collapsible=1;marginBottom=0;whiteSpace=wrap;html=1;" parent="1" vertex="1">
          <mxGeometry x="870" y="1020" width="140" height="108" as="geometry" />
        </mxCell>
        <mxCell id="uyxUzQ3jVB2el6wWb-nj-53" value="NORMAL(1)" style="text;strokeColor=none;fillColor=none;align=left;verticalAlign=top;spacingLeft=4;spacingRight=4;overflow=hidden;rotatable=0;points=[[0,0.5],[1,0.5]];portConstraint=eastwest;whiteSpace=wrap;html=1;" parent="uyxUzQ3jVB2el6wWb-nj-52" vertex="1">
          <mxGeometry y="30" width="140" height="26" as="geometry" />
        </mxCell>
        <mxCell id="uyxUzQ3jVB2el6wWb-nj-56" value="PREMIUN(2)" style="text;strokeColor=none;fillColor=none;align=left;verticalAlign=top;spacingLeft=4;spacingRight=4;overflow=hidden;rotatable=0;points=[[0,0.5],[1,0.5]];portConstraint=eastwest;whiteSpace=wrap;html=1;" parent="uyxUzQ3jVB2el6wWb-nj-52" vertex="1">
          <mxGeometry y="56" width="140" height="26" as="geometry" />
        </mxCell>
        <mxCell id="uyxUzQ3jVB2el6wWb-nj-54" value="VIP(3)" style="text;strokeColor=none;fillColor=none;align=left;verticalAlign=top;spacingLeft=4;spacingRight=4;overflow=hidden;rotatable=0;points=[[0,0.5],[1,0.5]];portConstraint=eastwest;whiteSpace=wrap;html=1;" parent="uyxUzQ3jVB2el6wWb-nj-52" vertex="1">
          <mxGeometry y="82" width="140" height="26" as="geometry" />
        </mxCell>
        <mxCell id="uyxUzQ3jVB2el6wWb-nj-57" value="" style="endArrow=open;endFill=1;endSize=12;html=1;rounded=0;" parent="1" source="we5CFTlUtSjJnZkdzTHI-7" target="uyxUzQ3jVB2el6wWb-nj-48" edge="1">
          <mxGeometry width="160" relative="1" as="geometry">
            <mxPoint x="300" y="1046" as="sourcePoint" />
            <mxPoint x="420" y="946" as="targetPoint" />
          </mxGeometry>
        </mxCell>
        <mxCell id="uyxUzQ3jVB2el6wWb-nj-58" value="" style="endArrow=open;endFill=1;endSize=12;html=1;rounded=0;" parent="1" source="uyxUzQ3jVB2el6wWb-nj-22" target="uyxUzQ3jVB2el6wWb-nj-52" edge="1">
          <mxGeometry width="160" relative="1" as="geometry">
            <mxPoint x="300" y="720" as="sourcePoint" />
            <mxPoint x="300" y="1142" as="targetPoint" />
          </mxGeometry>
        </mxCell>
      </root>
    </mxGraphModel>
  </diagram>
</mxfile>
